<svg width="18" height="21" viewBox="0 0 18 21" fill="none" xmlns="http://www.w3.org/2000/svg">
<path d="M16.8126 4.60924L13.3305 1.12709C12.9176 0.714146 12.0917 0.368164 11.5001 0.368164H1.50014C0.908622 0.368164 0.428711 0.848076 0.428711 1.43959V19.2967C0.428711 19.8883 0.908622 20.3682 1.50014 20.3682H16.5001C17.0917 20.3682 17.5716 19.8883 17.5716 19.2967V6.43959C17.5716 5.84808 17.2256 5.02218 16.8126 4.60924ZM11.8573 1.88602C12.047 1.95299 12.2367 2.05343 12.3149 2.13156L15.8082 5.62486C15.8863 5.70299 15.9867 5.89272 16.0537 6.08245H11.8573V1.88602ZM16.143 18.9396H1.85728V1.79674H10.4287V6.43959C10.4287 7.03111 10.9086 7.51102 11.5001 7.51102H16.143V18.9396ZM4.71443 9.29674V10.011C4.71443 10.2119 4.87068 10.3682 5.07157 10.3682H12.9287C13.1296 10.3682 13.2859 10.2119 13.2859 10.011V9.29674C13.2859 9.09584 13.1296 8.93959 12.9287 8.93959H5.07157C4.87068 8.93959 4.71443 9.09584 4.71443 9.29674ZM12.9287 11.7967H5.07157C4.87068 11.7967 4.71443 11.953 4.71443 12.1539V12.8682C4.71443 13.0691 4.87068 13.2253 5.07157 13.2253H12.9287C13.1296 13.2253 13.2859 13.0691 13.2859 12.8682V12.1539C13.2859 11.953 13.1296 11.7967 12.9287 11.7967ZM12.9287 14.6539H5.07157C4.87068 14.6539 4.71443 14.8101 4.71443 15.011V15.7253C4.71443 15.9262 4.87068 16.0825 5.07157 16.0825H12.9287C13.1296 16.0825 13.2859 15.9262 13.2859 15.7253V15.011C13.2859 14.8101 13.1296 14.6539 12.9287 14.6539Z" fill="#272733"/>
</svg>
