<svg width="35" height="35" viewBox="0 0 35 35" fill="none" xmlns="http://www.w3.org/2000/svg">
<path d="M23.9285 14.929C23.9285 19.891 19.8906 23.929 14.9285 23.929C9.96645 23.929 5.9285 19.891 5.9285 14.929C5.9285 9.96694 9.96645 5.92899 14.9285 5.92899C19.8906 5.92899 23.9285 9.96694 23.9285 14.929ZM34.2142 31.6433C34.2142 30.9602 33.933 30.2973 33.4709 29.8352L26.5803 22.9446C28.2075 20.5942 29.0714 17.7817 29.0714 14.929C29.0714 7.11426 22.7432 0.786133 14.9285 0.786133C7.11377 0.786133 0.785645 7.11426 0.785645 14.929C0.785645 22.7437 7.11377 29.0718 14.9285 29.0718C17.7812 29.0718 20.5937 28.208 22.9441 26.5808L29.8348 33.4513C30.2968 33.9335 30.9598 34.2147 31.6428 34.2147C33.049 34.2147 34.2142 33.0495 34.2142 31.6433Z" fill="white"/>
</svg>
