<svg width="37" height="29" viewBox="0 0 37 29" fill="none" xmlns="http://www.w3.org/2000/svg">
<path d="M33.7953 25.1076C33.7953 25.4491 33.4939 25.7504 33.1524 25.7504H3.58099C3.23947 25.7504 2.93813 25.4491 2.93813 25.1076V9.67899C3.36 10.1611 3.82206 10.6031 4.32429 11.0049C7.19706 13.2147 10.0899 15.4647 12.8823 17.7951C14.389 19.0607 16.2573 20.6076 18.3466 20.6076H18.3667H18.3868C20.4761 20.6076 22.3444 19.0607 23.8511 17.7951C26.6435 15.4647 29.5363 13.2147 32.4091 11.0049C32.9113 10.6031 33.3734 10.1611 33.7953 9.67899V25.1076ZM33.7953 3.99372C33.7953 5.70131 32.148 7.93122 30.8421 8.95578C28.1502 11.0652 25.4582 13.1946 22.7863 15.3241C21.7216 16.1879 19.793 18.0361 18.3868 18.0361H18.3667H18.3466C16.9404 18.0361 15.0118 16.1879 13.9471 15.3241C11.2752 13.1946 8.58322 11.0652 5.89125 8.95578C4.08322 7.52944 2.93813 5.5406 2.93813 3.25042C2.93813 2.9089 3.23947 2.60756 3.58099 2.60756H33.1524C33.9158 2.60756 33.7953 3.49149 33.7953 3.99372ZM36.3667 3.25042C36.3667 1.48256 34.9203 0.0361328 33.1524 0.0361328H3.58099C1.81313 0.0361328 0.366699 1.48256 0.366699 3.25042V25.1076C0.366699 26.8754 1.81313 28.3218 3.58099 28.3218H33.1524C34.9203 28.3218 36.3667 26.8754 36.3667 25.1076V3.25042Z" fill="white"/>
</svg>
