<svg width="27" height="28" viewBox="0 0 27 28" fill="none" xmlns="http://www.w3.org/2000/svg">
<path fill-rule="evenodd" clip-rule="evenodd" d="M13.5163 2.46191C20.0653 2.46191 25.3752 7.77191 25.3752 14.3219C25.3752 20.8709 20.0653 26.1809 13.5163 26.1809C6.96625 26.1809 1.65625 20.8709 1.65625 14.3219C1.65625 7.77191 6.96625 2.46191 13.5163 2.46191Z" fill="#42A9ED"/>
<path fill-rule="evenodd" clip-rule="evenodd" d="M13.5163 3.96191C7.79468 3.96191 3.15625 8.60034 3.15625 14.3219C3.15625 20.0424 7.79459 24.6809 13.5163 24.6809C19.2368 24.6809 23.8752 20.0425 23.8752 14.3219C23.8752 8.60026 19.2367 3.96191 13.5163 3.96191ZM0.15625 14.3219C0.15625 6.94349 6.13782 0.961914 13.5163 0.961914C20.8938 0.961914 26.8752 6.94357 26.8752 14.3219C26.8752 21.6993 20.8937 27.6809 13.5163 27.6809C6.13791 27.6809 0.15625 21.6994 0.15625 14.3219Z" fill="#286690"/>
</svg>
