<?xml version="1.0" encoding="utf-8"?><svg viewBox="0 0 40 43" xmlns="http://www.w3.org/2000/svg" xmlns:xlink="http://www.w3.org/1999/xlink"><style>:root>svg{display:none}:root>svg:target{display:block}</style><svg viewBox="0 0 9 6" id="check" xmlns="http://www.w3.org/2000/svg"><path d="M8.934 1.51a.308.308 0 0 0-.09-.205L8.399.86a.308.308 0 0 0-.205-.09.308.308 0 0 0-.205.09l-3.51 3.509L.97.858A.308.308 0 0 0 .765.77a.29.29 0 0 0-.206.089l-.446.446a.308.308 0 0 0-.09.206c0 .071.036.151.09.205l4.16 4.16c.054.054.134.09.206.09a.308.308 0 0 0 .205-.09l4.16-4.16a.308.308 0 0 0 .09-.205Z"/></svg><svg viewBox="0 0 39 27" id="dollar" xmlns="http://www.w3.org/2000/svg"><path d="M15.73 18.536v-1.928h2.57v-5.786h-.04c-.32.502-.622.723-1.104 1.145l-1.547-1.607 2.973-2.752h2.29v9h2.572v1.928h-7.715Zm10.285-5.143c0-3.656-2.21-8.357-6.428-8.357-4.22 0-6.43 4.701-6.43 8.357 0 3.656 2.21 8.357 6.43 8.357 4.218 0 6.428-4.7 6.428-8.357Zm10.286 5.143a5.153 5.153 0 0 0-5.143 5.143H8.015a5.153 5.153 0 0 0-5.143-5.143V8.25a5.153 5.153 0 0 0 5.143-5.142h23.143A5.153 5.153 0 0 0 36.3 8.25v10.286Zm2.571-16.714c0-.703-.582-1.286-1.285-1.286h-36C.883.536.3 1.12.3 1.822v23.143c0 .703.582 1.285 1.286 1.285h36c.703 0 1.285-.582 1.285-1.285V1.822Z"/></svg><svg viewBox="0 0 18 21" id="file" xmlns="http://www.w3.org/2000/svg"><path d="M16.813 4.61 13.33 1.126C12.918.714 12.09.368 11.5.368h-10C.908.368.428.848.428 1.44v17.857c0 .591.48 1.071 1.071 1.071h15c.592 0 1.072-.48 1.072-1.071V6.44c0-.592-.346-1.418-.76-1.83Zm-4.956-2.724c.19.067.38.167.458.246l3.493 3.493c.078.078.179.268.246.457h-4.197V1.886Zm4.286 17.054H1.857V1.797h8.572V6.44c0 .591.48 1.071 1.071 1.071h4.643V18.94ZM4.714 9.297v.714c0 .2.157.357.358.357h7.857c.2 0 .357-.156.357-.357v-.714c0-.201-.156-.357-.357-.357H5.072c-.201 0-.358.156-.358.357Zm8.215 2.5H5.072c-.201 0-.358.156-.358.357v.714c0 .201.157.357.358.357h7.857c.2 0 .357-.156.357-.357v-.714c0-.201-.156-.357-.357-.357Zm0 2.857H5.072c-.201 0-.358.156-.358.357v.714c0 .201.157.357.358.357h7.857c.2 0 .357-.156.357-.357v-.714c0-.2-.156-.357-.357-.357Z"/></svg><svg viewBox="0 0 35 35" id="fl" xmlns="http://www.w3.org/2000/svg"><path d="M23.928 14.929c0 4.962-4.037 9-9 9-4.962 0-9-4.038-9-9s4.038-9 9-9c4.963 0 9 4.038 9 9Zm10.286 16.714c0-.683-.281-1.346-.743-1.808l-6.89-6.89a14.11 14.11 0 0 0 2.49-8.016c0-7.815-6.328-14.143-14.143-14.143C7.114.786.787 7.114.787 14.93s6.328 14.143 14.143 14.143a14.11 14.11 0 0 0 8.015-2.491l6.89 6.87a2.52 2.52 0 0 0 1.809.764 2.59 2.59 0 0 0 2.571-2.572Z"/></svg><svg viewBox="0 0 37 29" id="mail" xmlns="http://www.w3.org/2000/svg"><path d="M33.795 25.108a.661.661 0 0 1-.643.642H3.581a.661.661 0 0 1-.643-.642V9.679c.422.482.884.924 1.386 1.326 2.873 2.21 5.766 4.46 8.558 6.79 1.507 1.266 3.375 2.813 5.465 2.813h.04c2.09 0 3.957-1.547 5.464-2.813 2.793-2.33 5.685-4.58 8.558-6.79.502-.402.964-.844 1.386-1.326v15.429Zm0-21.114c0 1.707-1.647 3.937-2.953 4.962-2.692 2.11-5.384 4.239-8.056 6.368-1.064.864-2.993 2.712-4.4 2.712h-.04c-1.406 0-3.334-1.848-4.399-2.712-2.672-2.13-5.364-4.259-8.056-6.368C4.083 7.529 2.938 5.54 2.938 3.25c0-.341.301-.642.643-.642h29.571c.764 0 .643.883.643 1.386Zm2.572-.744A3.224 3.224 0 0 0 33.152.036H3.581A3.224 3.224 0 0 0 .367 3.25v21.858a3.224 3.224 0 0 0 3.214 3.214h29.571a3.224 3.224 0 0 0 3.215-3.214V3.25Z"/></svg><svg viewBox="0 0 31 32" id="percent" xmlns="http://www.w3.org/2000/svg"><path d="M25.786 23.964a2.59 2.59 0 0 1-2.572 2.572 2.59 2.59 0 0 1-2.571-2.572 2.59 2.59 0 0 1 2.571-2.571 2.59 2.59 0 0 1 2.572 2.571ZM10.357 8.536a2.59 2.59 0 0 1-2.571 2.571 2.59 2.59 0 0 1-2.572-2.571 2.59 2.59 0 0 1 2.572-2.572 2.59 2.59 0 0 1 2.571 2.572Zm20.571 15.428a7.716 7.716 0 0 0-7.714-7.714 7.716 7.716 0 0 0-7.714 7.714 7.716 7.716 0 0 0 7.714 7.714 7.716 7.716 0 0 0 7.714-7.714ZM29 2.107c0-.703-.583-1.286-1.286-1.286H24.5c-.402 0-.784.201-1.025.523L2.261 29.629c-.16.221-.261.482-.261.764 0 .703.582 1.285 1.286 1.285H6.5c.402 0 .783-.2 1.024-.522L28.74 2.87c.16-.22.26-.482.26-.763ZM15.5 8.536A7.716 7.716 0 0 0 7.786.82 7.716 7.716 0 0 0 .07 8.536a7.716 7.716 0 0 0 7.715 7.714A7.716 7.716 0 0 0 15.5 8.536Z"/></svg><svg viewBox="0 0 21 21" id="qiwi" xmlns="http://www.w3.org/2000/svg"><path d="M16.909 13.463c.06.387-.067.551-.195.551-.129 0-.314-.157-.521-.47-.208-.313-.278-.66-.178-.839a.287.287 0 0 1 .17-.126.298.298 0 0 1 .213.022c.34.124.474.629.51.862Zm-1.888.85c.41.335.534.733.318 1.013a.689.689 0 0 1-.55.238.999.999 0 0 1-.626-.219c-.371-.314-.48-.824-.238-1.114a.532.532 0 0 1 .435-.175c.245.008.479.099.66.257Zm-.684 3.23c1.762 0 3.674.585 5.791 2.399.211.18.493-.044.309-.27-2.08-2.54-4.008-3.024-5.922-3.432-2.346-.502-3.554-1.78-4.4-3.182-.167-.279-.243-.23-.257.13a7.655 7.655 0 0 0 .124 1.589h-.286a6.226 6.226 0 0 1-3.377-.991 5.927 5.927 0 0 1-2.239-2.639 5.701 5.701 0 0 1-.346-3.397 5.823 5.823 0 0 1 1.664-3.01A6.145 6.145 0 0 1 8.51 3.13a6.27 6.27 0 0 1 3.512.335A6.04 6.04 0 0 1 14.75 5.63a5.744 5.744 0 0 1 .986 3.95 9.38 9.38 0 0 0-1.93-.034c-.232.02-.198.129-.025.154 2.004.35 3.39 1.55 3.706 3.74a.053.053 0 0 0 .014.03.057.057 0 0 0 .063.014.055.055 0 0 0 .025-.021 8.658 8.658 0 0 0 1.24-5.609 8.78 8.78 0 0 0-2.554-5.175 9.31 9.31 0 0 0-5.29-2.591 9.46 9.46 0 0 0-5.825 1.07 9 9 0 0 0-3.94 4.286 8.625 8.625 0 0 0-.416 5.72 8.883 8.883 0 0 0 3.28 4.779 9.399 9.399 0 0 0 5.612 1.849c1.343.003 2.68-.25 4.64-.25v.002Z"/></svg><svg viewBox="0 0 27 28" id="range" xmlns="http://www.w3.org/2000/svg"><path fill-rule="evenodd" clip-rule="evenodd" d="M13.516 2.462c6.55 0 11.86 5.31 11.86 11.86 0 6.549-5.31 11.859-11.86 11.859s-11.86-5.31-11.86-11.86 5.31-11.86 11.86-11.86Z"/><path fill-rule="evenodd" clip-rule="evenodd" d="M13.516 3.962c-5.721 0-10.36 4.638-10.36 10.36 0 5.72 4.639 10.359 10.36 10.359 5.72 0 10.36-4.639 10.36-10.36 0-5.72-4.64-10.36-10.36-10.36ZM.156 14.322c0-7.379 5.982-13.36 13.36-13.36 7.378 0 13.36 5.982 13.36 13.36 0 7.377-5.982 13.359-13.36 13.359-7.378 0-13.36-5.982-13.36-13.36Z"/></svg><svg viewBox="0 0 16 13" id="smail" xmlns="http://www.w3.org/2000/svg"><path d="M14.75 10.849a.275.275 0 0 1-.268.268H2.162a.275.275 0 0 1-.269-.268V4.42c.176.201.369.385.578.553 1.197.92 2.402 1.858 3.566 2.829.627.527 1.406 1.172 2.276 1.172h.017c.87 0 1.65-.645 2.277-1.172a114.797 114.797 0 0 1 3.566-2.83c.209-.167.402-.35.577-.552v6.429Zm0-8.798c0 .712-.686 1.641-1.23 2.068a518.247 518.247 0 0 0-3.357 2.653c-.443.36-1.247 1.13-1.833 1.13h-.017c-.586 0-1.39-.77-1.833-1.13A518.792 518.792 0 0 0 3.124 4.12c-.754-.594-1.23-1.423-1.23-2.377 0-.143.125-.268.267-.268h12.321c.319 0 .268.368.268.577Zm1.072-.31c0-.736-.603-1.339-1.34-1.339H2.162c-.738 0-1.34.603-1.34 1.34v9.107c0 .736.602 1.34 1.34 1.34h12.32c.737 0 1.34-.604 1.34-1.34V1.742Z"/></svg><svg viewBox="0 0 40 43" id="tepmor" xmlns="http://www.w3.org/2000/svg"><path d="M15.993 23.372v-1.286c0-.361.281-.643.643-.643h14.143c.361 0 .643.282.643.643v1.286a.635.635 0 0 1-.643.643H16.636a.635.635 0 0 1-.643-.643ZM16.636 26.586h14.143c.361 0 .643.282.643.643v1.286a.635.635 0 0 1-.643.643H16.636a.635.635 0 0 1-.643-.643v-1.286c0-.361.281-.643.643-.643ZM16.636 31.73h14.143c.361 0 .643.28.643.642v1.286a.635.635 0 0 1-.643.643H16.636a.635.635 0 0 1-.643-.643v-1.286c0-.362.281-.643.643-.643Z"/><path fill-rule="evenodd" clip-rule="evenodd" d="M8.279 15.314a7.415 7.415 0 1 1 7.173-9.3h12.755c1.065 0 2.552.624 3.295 1.367l6.268 6.268c.743.743 1.366 2.23 1.366 3.294v23.143a1.93 1.93 0 0 1-1.929 1.929h-27a1.93 1.93 0 0 1-1.928-1.929V15.314Zm2.571-.458a7.421 7.421 0 0 0 4.812-6.27H26.28v8.357c0 1.065.864 1.929 1.928 1.929h8.358v20.571H10.85V14.856ZM29.674 9.19c-.14-.14-.482-.321-.824-.442v7.554h7.554c-.12-.342-.302-.683-.442-.824l-6.288-6.288Zm-20.395-.29h4v-2h-4v-4h-2v4h-4v2h4v4h2v-4Z"/></svg><svg viewBox="0 0 12 14" id="vk" xmlns="http://www.w3.org/2000/svg"><path d="M11.18 9.286c0 .65-.123 1.222-.369 1.714s-.577.9-.993 1.222a4.598 4.598 0 0 1-1.626.826c-.586.164-1.333.246-2.241.246H.712V.207h4.623c.961 0 1.688.038 2.18.114.498.07.964.223 1.398.457.468.252.817.59 1.046 1.011.234.422.351.908.351 1.46a3.07 3.07 0 0 1-.483 1.704 2.793 2.793 0 0 1-1.319 1.099v.07c.809.17 1.456.519 1.943 1.046.486.521.73 1.228.73 2.118ZM6.97 3.907c0-.21-.055-.428-.167-.65a.961.961 0 0 0-.5-.484 2.043 2.043 0 0 0-.774-.149 36.064 36.064 0 0 0-1.319-.018h-.228v2.769h.413c.563 0 .955-.006 1.178-.018.228-.011.463-.073.703-.184.264-.123.445-.293.545-.51.1-.217.15-.469.15-.756Zm.826 5.318c0-.405-.082-.721-.246-.95-.164-.228-.41-.401-.738-.518-.2-.076-.475-.117-.826-.123a43.437 43.437 0 0 0-1.398-.018h-.606v3.279h.176c.855 0 1.447-.006 1.775-.018.328-.012.662-.09 1.002-.237.299-.13.516-.317.65-.563.141-.252.211-.536.211-.852Z"/></svg><svg viewBox="0 0 19 18" id="wm" xmlns="http://www.w3.org/2000/svg"><path d="M9.341 0c1.41 0 2.752.323 3.956.901.189.085.379.187.567.29l-.825.73L11.8.647l-2.133 1.87-1.256-1.343L4.491 4.66 7 7.396l-.98.85 2.477 2.738-.98.85 3.544 3.893 2.097-1.904 1.824 2.04c-.362.273-.757.546-1.187.783a9.07 9.07 0 0 1-4.438 1.156c-4.97 0-9.012-3.995-9.012-8.909C.328 4.013 4.37 0 9.34 0ZM7.69 8.349l2.15-1.905 1.926 2.126-2.15 1.904L7.69 8.349Zm1.53 3.672 2.133-1.92 1.944 2.124-2.15 1.905L9.22 12.02ZM6.16 4.727l2.15-1.904 1.925 2.125-2.15 1.904L6.16 4.727Zm3.938-1.02 1.6-1.429 1.444 1.582-1.6 1.445-1.444-1.598Zm2.855 6.546 1.6-1.428 1.444 1.597-1.6 1.43-1.444-1.6Zm1.41 3.214 1.6-1.429 1.444 1.582-1.6 1.444-1.444-1.597Zm.654-7.346 1.066-.952.963 1.054-1.066.952-.963-1.054Zm-1.376-3.146 1.066-.968.964 1.07-1.067.953-.963-1.055Zm2.735 6.292 1.066-.952.98 1.054-1.083.952-.963-1.054Zm-4.799-2.364 1.6-1.428 1.444 1.581-1.599 1.429-1.445-1.582Z"/></svg><svg viewBox="0 0 15 18" id="ym" xmlns="http://www.w3.org/2000/svg"><path fill-rule="evenodd" clip-rule="evenodd" d="M.78 8.93c0-.983.083-1.608 2.138-3.13C4.62 4.542 10.073.238 10.073.238v7.185h4.147v10.34H2.075A1.294 1.294 0 0 1 .78 16.479V8.93Z"/><path fill-rule="evenodd" clip-rule="evenodd" d="M10.073 7.422v4.163l-7.62 5.148 9.634-3.109V7.422h-2.014Z" fill-opacity=".2"/><path fill-rule="evenodd" clip-rule="evenodd" d="M6.59 7.207c.446-.526 1.097-.712 1.455-.415.357.298.286.966-.16 1.492-.445.527-1.097.712-1.454.415s-.286-.965.16-1.492Z"/></svg></svg>