<svg width="12" height="14" viewBox="0 0 12 14" fill="none" xmlns="http://www.w3.org/2000/svg">
<path d="M11.1802 9.28613C11.1802 9.93652 11.0571 10.5078 10.811 11C10.5649 11.4922 10.2339 11.8994 9.81787 12.2217C9.32568 12.6084 8.78369 12.8838 8.19189 13.0479C7.60596 13.2119 6.85889 13.2939 5.95068 13.2939H0.712402V0.207031H5.33545C6.29639 0.207031 7.02295 0.245117 7.51514 0.321289C8.01318 0.391602 8.479 0.543945 8.9126 0.77832C9.38135 1.03027 9.72998 1.36719 9.9585 1.78906C10.1929 2.21094 10.3101 2.69727 10.3101 3.24805C10.3101 3.88672 10.1489 4.45508 9.82666 4.95312C9.51025 5.45117 9.0708 5.81738 8.5083 6.05176V6.12207C9.31689 6.29199 9.96436 6.64062 10.4507 7.16797C10.937 7.68945 11.1802 8.39551 11.1802 9.28613ZM6.97021 3.90723C6.97021 3.69629 6.91455 3.47949 6.80322 3.25684C6.69775 3.03418 6.53076 2.87305 6.30225 2.77344C6.08545 2.67969 5.82764 2.62988 5.52881 2.62402C5.23584 2.6123 4.79639 2.60645 4.21045 2.60645H3.98193V5.375H4.39502C4.95752 5.375 5.3501 5.36914 5.57275 5.35742C5.80127 5.3457 6.03564 5.28418 6.27588 5.17285C6.53955 5.0498 6.72119 4.87988 6.8208 4.66309C6.92041 4.44629 6.97021 4.19434 6.97021 3.90723ZM7.79639 9.22461C7.79639 8.82031 7.71436 8.50391 7.55029 8.27539C7.38623 8.04688 7.14014 7.87402 6.81201 7.75684C6.61279 7.68066 6.3374 7.63965 5.98584 7.63379C5.64014 7.62207 5.17432 7.61621 4.58838 7.61621H3.98193V10.8945H4.15771C5.01318 10.8945 5.60498 10.8887 5.93311 10.877C6.26123 10.8652 6.59521 10.7861 6.93506 10.6396C7.23389 10.5107 7.45068 10.3232 7.58545 10.0771C7.72607 9.8252 7.79639 9.54102 7.79639 9.22461Z" fill="#3E9CDC"/>
</svg>
