<svg width="15" height="18" viewBox="0 0 15 18" fill="none" xmlns="http://www.w3.org/2000/svg">
<path fill-rule="evenodd" clip-rule="evenodd" d="M0.779987 8.93057C0.779987 7.94652 0.863184 7.32201 2.91826 5.80074C4.61964 4.54125 10.0732 0.237305 10.0732 0.237305V7.42197H14.2204V17.7625H2.07533C1.36291 17.7625 0.779785 17.1843 0.779785 16.4777L0.779987 8.93064V8.93057Z" fill="#3E9CDC"/>
<path fill-rule="evenodd" clip-rule="evenodd" d="M10.073 7.42188V11.5849L2.45215 16.7334L12.0874 13.6245V7.42188H10.073Z" fill="black" fill-opacity="0.2"/>
<path fill-rule="evenodd" clip-rule="evenodd" d="M6.59073 7.20721C7.03643 6.6806 7.68729 6.49473 8.04468 6.79209C8.40207 7.08952 8.33063 7.75755 7.88494 8.28417C7.43958 8.81072 6.78845 8.99638 6.43106 8.69896C6.07367 8.40159 6.14531 7.73369 6.59073 7.20715V7.20721Z" fill="#231F20"/>
</svg>
