<svg width="9" height="6" viewBox="0 0 9 6" fill="none" xmlns="http://www.w3.org/2000/svg">
<path d="M8.93415 1.5106C8.93415 1.43917 8.89844 1.35882 8.84487 1.30525L8.39844 0.858817C8.34487 0.805245 8.26451 0.769531 8.19308 0.769531C8.12165 0.769531 8.0413 0.805245 7.98772 0.858817L4.4788 4.36774L0.969866 0.858817C0.916295 0.805245 0.835938 0.769531 0.764509 0.769531C0.684152 0.769531 0.612723 0.805245 0.559152 0.858817L0.112723 1.30525C0.0591518 1.35882 0.0234375 1.43917 0.0234375 1.5106C0.0234375 1.58203 0.0591518 1.66239 0.112723 1.71596L4.27344 5.87667C4.32701 5.93025 4.40737 5.96596 4.4788 5.96596C4.55022 5.96596 4.63058 5.93025 4.68415 5.87667L8.84487 1.71596C8.89844 1.66239 8.93415 1.58203 8.93415 1.5106Z" fill="black"/>
</svg>
