<svg width="39" height="27" viewBox="0 0 39 27" fill="none" xmlns="http://www.w3.org/2000/svg">
<path d="M15.7294 18.5361V16.6076H18.3008V10.8218H18.2606C17.9392 11.3241 17.6378 11.5451 17.1557 11.9669L15.6088 10.3598L18.582 7.60756H20.8722V16.6076H23.4436V18.5361H15.7294ZM26.0151 13.3933C26.0151 9.73703 23.8052 5.03613 19.5865 5.03613C15.3677 5.03613 13.1579 9.73703 13.1579 13.3933C13.1579 17.0495 15.3677 21.7504 19.5865 21.7504C23.8052 21.7504 26.0151 17.0495 26.0151 13.3933ZM36.3008 18.5361C33.4682 18.5361 31.1579 20.8464 31.1579 23.679H8.01507C8.01507 20.8464 5.7048 18.5361 2.87221 18.5361V8.25042C5.7048 8.25042 8.01507 5.94015 8.01507 3.10756H31.1579C31.1579 5.94015 33.4682 8.25042 36.3008 8.25042V18.5361ZM38.8722 1.82185C38.8722 1.11872 38.2896 0.536133 37.5865 0.536133H1.5865C0.883371 0.536133 0.300781 1.11872 0.300781 1.82185V24.9647C0.300781 25.6678 0.883371 26.2504 1.5865 26.2504H37.5865C38.2896 26.2504 38.8722 25.6678 38.8722 24.9647V1.82185Z" fill="white"/>
</svg>
