<svg width="31" height="32" viewBox="0 0 31 32" fill="none" xmlns="http://www.w3.org/2000/svg">
<path d="M25.7856 23.9641C25.7856 25.3704 24.6204 26.5356 23.2141 26.5356C21.8079 26.5356 20.6427 25.3704 20.6427 23.9641C20.6427 22.5579 21.8079 21.3927 23.2141 21.3927C24.6204 21.3927 25.7856 22.5579 25.7856 23.9641ZM10.357 8.53558C10.357 9.94183 9.19183 11.107 7.78558 11.107C6.37932 11.107 5.21415 9.94183 5.21415 8.53558C5.21415 7.12933 6.37932 5.96415 7.78558 5.96415C9.19183 5.96415 10.357 7.12933 10.357 8.53558ZM30.9284 23.9641C30.9284 19.7052 27.4731 16.2499 23.2141 16.2499C18.9552 16.2499 15.4999 19.7052 15.4999 23.9641C15.4999 28.2231 18.9552 31.6784 23.2141 31.6784C27.4731 31.6784 30.9284 28.2231 30.9284 23.9641ZM28.9999 2.107C28.9999 1.40388 28.4173 0.821289 27.7141 0.821289H24.4999C24.0981 0.821289 23.7164 1.02218 23.4753 1.34361L2.26102 29.6293C2.10031 29.8503 1.99986 30.1115 1.99986 30.3927C1.99986 31.0958 2.58245 31.6784 3.28557 31.6784H6.49986C6.90165 31.6784 7.28334 31.4775 7.52441 31.1561L28.7387 2.8704C28.8994 2.64941 28.9999 2.38825 28.9999 2.107ZM15.4999 8.53558C15.4999 4.27665 12.0445 0.821289 7.78558 0.821289C3.52665 0.821289 0.0712891 4.27665 0.0712891 8.53558C0.0712891 12.7945 3.52665 16.2499 7.78558 16.2499C12.0445 16.2499 15.4999 12.7945 15.4999 8.53558Z" fill="white"/>
</svg>
