<svg width="21" height="21" viewBox="0 0 21 21" fill="none" xmlns="http://www.w3.org/2000/svg">
<path d="M16.9086 13.4626C16.9687 13.8502 16.8418 14.0144 16.7135 14.0144C16.5853 14.0144 16.3996 13.8567 16.1925 13.544C15.9855 13.2313 15.9147 12.8836 16.0149 12.7053C16.0526 12.6435 16.1135 12.5982 16.1849 12.5787C16.2563 12.5592 16.3327 12.5671 16.3983 12.6006C16.7389 12.7247 16.8725 13.23 16.9086 13.4626ZM15.0209 14.3129C15.4311 14.6476 15.5553 15.0456 15.3389 15.326C15.273 15.4044 15.189 15.4667 15.0936 15.508C14.9982 15.5493 14.8942 15.5684 14.7898 15.5638C14.561 15.5641 14.3393 15.4868 14.1633 15.3454C13.7919 15.0313 13.6824 14.5209 13.9255 14.2315C13.9792 14.172 14.0462 14.1253 14.1215 14.0949C14.1968 14.0644 14.2782 14.051 14.3597 14.0557C14.6045 14.0636 14.8386 14.1546 15.0209 14.3129ZM14.3369 17.5435C16.099 17.5435 18.0107 18.1276 20.1281 19.9419C20.3392 20.1228 20.6211 19.8979 20.4367 19.6718C18.3567 17.1325 16.429 16.6479 14.5146 16.2396C12.1688 15.7382 10.9611 14.4602 10.1155 13.0581C9.94847 12.779 9.87232 12.8281 9.85762 13.1873C9.84358 13.7198 9.88521 14.2524 9.98186 14.7768C9.88701 14.7768 9.79083 14.7768 9.69598 14.7768C8.49378 14.7768 7.31858 14.4319 6.31899 13.7859C5.3194 13.1398 4.54031 12.2215 4.08025 11.1471C3.62019 10.0728 3.49982 8.89056 3.73436 7.75001C3.96889 6.60947 4.54781 5.5618 5.39789 4.73951C6.24797 3.91723 7.33104 3.35724 8.51014 3.13037C9.68924 2.9035 10.9114 3.01994 12.0221 3.46496C13.1328 3.90998 14.0821 4.66359 14.75 5.6305C15.4179 6.59741 15.7744 7.73419 15.7744 8.89709C15.775 9.12548 15.7621 9.35372 15.7357 9.58068C15.0953 9.50268 14.4482 9.49099 13.8053 9.54579C13.5741 9.56517 13.6075 9.67501 13.7812 9.69957C15.7851 10.0498 17.1718 11.2503 17.487 13.4406C17.4882 13.4517 17.4929 13.4622 17.5005 13.4705C17.5082 13.4789 17.5183 13.4847 17.5296 13.4871C17.5408 13.4895 17.5526 13.4885 17.5632 13.4841C17.5738 13.4797 17.5827 13.4721 17.5886 13.4626C18.631 11.777 19.0674 9.8051 18.8297 7.85445C18.592 5.90381 17.6936 4.0841 16.2746 2.67916C14.8556 1.27423 12.9958 0.36307 10.9853 0.087805C8.97479 -0.18746 6.92664 0.188649 5.1603 1.15747C3.39396 2.12628 2.00876 3.63333 1.22076 5.44354C0.432754 7.25376 0.286257 9.26535 0.804117 11.1645C1.32198 13.0637 2.47508 14.7438 4.08355 15.9425C5.69203 17.1413 7.66544 17.7915 9.69598 17.7916C11.0386 17.7954 12.3758 17.5422 14.3369 17.5422V17.5435Z" fill="#3E9CDC"/>
</svg>
