<svg width="16" height="13" viewBox="0 0 16 13" fill="none" xmlns="http://www.w3.org/2000/svg">
<path d="M14.7503 10.8488C14.7503 10.9911 14.6248 11.1166 14.4825 11.1166H2.16106C2.01876 11.1166 1.89321 10.9911 1.89321 10.8488V4.4202C2.06899 4.62109 2.26151 4.80525 2.47077 4.97266C3.66776 5.89342 4.87312 6.83091 6.03662 7.8019C6.66441 8.32924 7.44287 8.97377 8.31341 8.97377H8.32178H8.33015C9.20068 8.97377 9.97914 8.32924 10.6069 7.8019C11.7704 6.83091 12.9758 5.89342 14.1728 4.97266C14.382 4.80525 14.5746 4.62109 14.7503 4.4202V10.8488ZM14.7503 2.05134C14.7503 2.76283 14.064 3.69196 13.5199 4.11886C12.3982 4.99777 11.2766 5.88504 10.1633 6.77232C9.71966 7.13225 8.91609 7.90234 8.33015 7.90234H8.32178H8.31341C7.72747 7.90234 6.9239 7.13225 6.48026 6.77232C5.36698 5.88504 4.24533 4.99777 3.12367 4.11886C2.37033 3.52455 1.89321 2.69587 1.89321 1.74163C1.89321 1.59933 2.01876 1.47377 2.16106 1.47377H14.4825C14.8006 1.47377 14.7503 1.84208 14.7503 2.05134ZM15.8218 1.74163C15.8218 1.00502 15.2191 0.402344 14.4825 0.402344H2.16106C1.42446 0.402344 0.821777 1.00502 0.821777 1.74163V10.8488C0.821777 11.5854 1.42446 12.1881 2.16106 12.1881H14.4825C15.2191 12.1881 15.8218 11.5854 15.8218 10.8488V1.74163Z" fill="#3E9CDC"/>
</svg>
