<svg width="40" height="43" viewBox="0 0 40 43" fill="none" xmlns="http://www.w3.org/2000/svg">
<path d="M15.9931 23.372V22.0863C15.9931 21.7247 16.2743 21.4434 16.6359 21.4434H30.7788C31.1404 21.4434 31.4216 21.7247 31.4216 22.0863V23.372C31.4216 23.7336 31.1404 24.0149 30.7788 24.0149H16.6359C16.2743 24.0149 15.9931 23.7336 15.9931 23.372Z" fill="white"/>
<path d="M16.6359 26.5863H30.7788C31.1404 26.5863 31.4216 26.8675 31.4216 27.2292V28.5149C31.4216 28.8765 31.1404 29.1577 30.7788 29.1577H16.6359C16.2743 29.1577 15.9931 28.8765 15.9931 28.5149V27.2292C15.9931 26.8675 16.2743 26.5863 16.6359 26.5863Z" fill="white"/>
<path d="M16.6359 31.7292H30.7788C31.1404 31.7292 31.4216 32.0104 31.4216 32.372V33.6577C31.4216 34.0193 31.1404 34.3006 30.7788 34.3006H16.6359C16.2743 34.3006 15.9931 34.0193 15.9931 33.6577V32.372C15.9931 32.0104 16.2743 31.7292 16.6359 31.7292Z" fill="white"/>
<path fill-rule="evenodd" clip-rule="evenodd" d="M8.27877 15.3144C4.18358 15.3144 0.86377 11.9946 0.86377 7.89937C0.86377 3.80418 4.18358 0.484375 8.27877 0.484375C11.7228 0.484375 14.6184 2.83234 15.4522 6.01486H28.2073C29.2721 6.01486 30.7587 6.63763 31.502 7.38094L37.7698 13.6488C38.5131 14.3921 39.1359 15.8787 39.1359 16.9434V40.0863C39.1359 41.151 38.2721 42.0149 37.2073 42.0149H10.2073C9.14261 42.0149 8.27877 41.151 8.27877 40.0863L8.27877 15.3144ZM10.8502 14.8564C13.4727 13.8867 15.3969 11.4766 15.6624 8.58629H26.2788V16.9434C26.2788 18.0082 27.1426 18.872 28.2073 18.872H36.5645V39.4434H10.8502V14.8564ZM29.6739 9.18897C29.5332 9.04835 29.1917 8.86754 28.8502 8.74701V16.3006H36.4038C36.2832 15.9591 36.1024 15.6175 35.9618 15.4769L29.6739 9.18897ZM9.27877 8.89941H13.2788V6.89941H9.27877V2.89941H7.27877V6.89941H3.27877V8.89941H7.27877V12.8994H9.27877V8.89941Z" fill="white"/>
</svg>
